<svg width="56" height="33" viewBox="0 0 56 33" fill="none" xmlns="http://www.w3.org/2000/svg">
<path fill-rule="evenodd" clip-rule="evenodd" d="M15.131 11.4464C17.321 7.91297 16.226 3.28463 12.7419 1.09488C11.5473 0.398137 10.2034 0 8.80981 0H0V24.3361H9.90481C14.036 24.3361 17.3707 20.952 17.3707 16.8213C17.3707 14.7808 16.5744 12.8897 15.131 11.4464ZM5.67411 5.72322H8.80981C9.80526 5.72322 10.6016 6.51949 10.6016 7.51483C10.6016 8.51018 9.80526 9.30645 8.80981 9.30645H5.67411V5.72322ZM9.90481 18.6129H5.67411V15.0297H9.90481C10.9003 15.0297 11.6966 15.8259 11.6966 16.8213C11.6966 17.8166 10.9003 18.6129 9.90481 18.6129ZM44.7956 0V24.3361H39.1215V1.19441L44.7956 0ZM28.271 6.91763C23.443 6.91763 19.511 10.8492 19.511 15.7264C19.511 20.6036 23.443 24.5352 28.271 24.5352C33.099 24.5352 37.031 20.6036 37.031 15.7264C36.9813 10.8492 33.099 6.91763 28.271 6.91763ZM28.271 18.6129C26.6783 18.6129 25.434 17.319 25.434 15.7762C25.434 14.1836 26.6783 12.9394 28.271 12.9394C29.8637 12.9394 31.1081 14.2334 31.1081 15.7762C31.1081 17.319 29.814 18.6129 28.271 18.6129ZM31.1081 29.5119C31.1081 31.1044 29.814 32.3486 28.271 32.3486C26.7281 32.3486 25.434 31.0547 25.434 29.5119C25.434 27.9193 26.7281 26.6752 28.271 26.6752C29.814 26.6254 31.1081 27.9193 31.1081 29.5119ZM55.6461 7.21623V12.9394H52.8091V17.4185C52.8091 18.7622 53.257 19.7575 54.4018 19.7575C54.8498 19.7575 55.2479 19.7078 55.6461 19.6082V23.8384C54.8 24.2864 53.8543 24.5352 52.8588 24.5352H52.8091C52.7593 24.5352 52.7593 24.5352 52.7095 24.5352C52.6597 24.5352 52.6597 24.5352 52.61 24.5352H52.5602H52.4607C49.325 24.3859 47.1349 22.3952 47.1349 18.8617V12.9394V4.0809L52.8091 2.88649V7.266H55.6461V7.21623Z" fill="#32BB78"/>
</svg>
