<svg width="139" height="113" viewBox="0 0 139 113" fill="none" xmlns="http://www.w3.org/2000/svg">
<g clip-path="url(#clip0_43_14)">
<path fill-rule="evenodd" clip-rule="evenodd" d="M102.631 0.000180483V48.118H91.3124V2.40556L102.631 0.000180483ZM70.404 36.7961C73.5327 36.7961 76.064 34.264 76.064 31.1352C76.064 28.0056 73.5327 25.4742 70.404 25.4742C67.276 25.4742 64.7446 28.0056 64.7446 31.1352C64.7446 34.264 67.276 36.7961 70.404 36.7961ZM70.404 13.6647C80.0412 13.6647 87.8695 21.4798 87.8695 31.1352C87.8695 40.7898 80.0405 48.6056 70.404 48.6056C60.752 48.6056 52.9384 40.7898 52.9384 31.1352C52.9384 21.4798 60.7675 13.6647 70.404 13.6647ZM70.404 52.6783C73.5297 52.6783 76.064 55.2126 76.064 58.3392C76.064 61.4658 73.5297 64.0001 70.404 64.0001C67.279 64.0001 64.7446 61.4658 64.7446 58.3392C64.7446 55.2126 67.279 52.6783 70.404 52.6783ZM45.2199 22.6755C47.9553 25.3799 49.653 29.1225 49.6368 33.2576C49.6368 41.4661 42.9876 48.1179 34.7814 48.1179H14.9737V0.000106812H32.5807C40.7869 0.000106812 47.4361 6.65191 47.4361 14.8597C47.4361 17.7218 46.6348 20.4108 45.2199 22.6755ZM34.7968 36.7961C36.7464 36.7961 38.3343 35.2077 38.3343 33.2576C38.3343 31.3083 36.7464 29.7199 34.7968 29.7199H26.3086V36.7961H34.7968ZM26.3086 11.3219V18.3981H32.5969C34.5457 18.3981 36.1329 16.8097 36.1329 14.8597C36.1329 12.9103 34.5457 11.3219 32.5969 11.3219H26.3086ZM124.011 25.6313H118.367V34.5161C118.367 37.2051 119.232 39.1861 121.496 39.1861C122.958 39.1861 124.026 38.8561 124.026 38.8561V47.1905C124.026 47.1905 121.684 48.6058 118.508 48.6058H118.367C118.226 48.6058 118.1 48.5896 117.958 48.5896H117.848C117.786 48.5896 117.706 48.5741 117.644 48.5741C111.324 48.2433 107.033 44.2651 107.033 37.362V8.06655L118.352 5.66117V14.3095H124.011V25.6313Z" fill="#32BB78"/>
<path fill-rule="evenodd" clip-rule="evenodd" d="M47.5034 100.797C50.6375 100.797 53.1738 98.2649 53.1738 95.136C53.1738 92.0064 50.6375 89.475 47.5034 89.475C44.3686 89.475 41.8323 92.0064 41.8323 95.136C41.8323 98.2649 44.3686 100.797 47.5034 100.797ZM47.5034 77.6652C57.1586 77.6652 65.003 85.4804 65.003 95.136C65.003 104.791 57.1586 112.607 47.5034 112.607C37.8327 112.607 30.0039 104.791 30.0039 95.136C30.0039 85.4804 37.8482 77.6652 47.5034 77.6652ZM84.5367 100.797C87.6707 100.797 90.207 98.2649 90.207 95.136C90.207 92.0064 87.6707 89.475 84.5367 89.475C81.4019 89.475 78.8656 92.0064 78.8656 95.136C78.8656 98.2649 81.4019 100.797 84.5367 100.797ZM84.5367 77.6652C94.1919 77.6652 102.036 85.4804 102.036 95.136C102.036 104.791 94.1919 112.607 84.5367 112.607C74.8659 112.607 67.0371 104.791 67.0371 95.136C67.0371 85.4804 74.8814 77.6652 84.5367 77.6652ZM11.4292 93.7286V112.119H0.088501V64.0001H30.3611V75.3376H11.4292V82.3904H26.9282V93.7286H11.4292ZM127.571 109.213C125.647 110.999 123.178 112.119 120.126 112.119C111.26 112.119 104.074 104.407 104.074 94.8919C104.074 85.3778 111.26 77.665 120.126 77.665C123.178 77.665 125.647 78.7645 127.571 80.5311V64.0001H138.912V112.119H127.571V109.213ZM121.418 100.605C124.579 100.605 127.141 98.0474 127.141 94.8919C127.141 91.7365 124.579 89.1793 121.418 89.1793C118.257 89.1793 115.695 91.7365 115.695 94.8919C115.695 98.0474 118.257 100.605 121.418 100.605Z" fill="#2F313F"/>
</g>
<defs>
<clipPath id="clip0_43_14">
<rect width="139" height="112.607" fill="white"/>
</clipPath>
</defs>
</svg>
