<svg width="268" height="538" viewBox="0 0 268 538" fill="none" xmlns="http://www.w3.org/2000/svg">
<path d="M267.915 127.693H264.962V46.812C264.962 40.6645 263.752 34.5773 261.399 28.8978C259.047 23.2183 255.599 18.0578 251.252 13.7109C246.906 9.36399 241.746 5.91585 236.067 3.56334C230.388 1.21082 224.301 1.20954e-05 218.154 3.05178e-05H46.8085C40.6616 1.69434e-05 34.5748 1.21084 28.8957 3.56335C23.2166 5.91587 18.0565 9.36401 13.7099 13.7109C9.36332 18.0578 5.91542 23.2183 3.56307 28.8978C1.21073 34.5773 -6.78668e-06 40.6646 0 46.812V490.533C-4.84762e-06 496.681 1.21073 502.768 3.56307 508.447C5.91542 514.127 9.36332 519.287 13.7099 523.634C18.0565 527.981 23.2166 531.429 28.8957 533.782C34.5748 536.134 40.6616 537.345 46.8085 537.345H218.154C224.301 537.345 230.388 536.134 236.067 533.782C241.746 531.429 246.906 527.981 251.252 523.634C255.599 519.287 259.047 514.127 261.399 508.447C263.752 502.768 264.962 496.681 264.962 490.533V185.266H267.915V127.693Z" fill="#2F313F"/>
<path d="M220.042 12.179H197.676C198.705 14.7009 199.097 17.4371 198.819 20.1465C198.542 22.8559 197.602 25.4553 196.083 27.7159C194.563 29.9764 192.512 31.8287 190.108 33.1095C187.705 34.3903 185.023 35.0603 182.3 35.0605H84.1383C81.4149 35.0603 78.7333 34.3903 76.3298 33.1095C73.9263 31.8287 71.8747 29.9764 70.3556 27.7159C68.8365 25.4553 67.8966 22.8559 67.6187 20.1465C67.3408 17.4371 67.7334 14.7009 68.762 12.179H47.8719C43.2814 12.179 38.7359 13.0832 34.4948 14.8401C30.2537 16.5969 26.4002 19.1719 23.1542 22.4181C19.9083 25.6643 17.3334 29.5181 15.5767 33.7595C13.82 38.0009 12.9158 42.5468 12.9158 47.1376V490.208C12.9158 494.799 13.82 499.345 15.5767 503.586C17.3334 507.827 19.9083 511.681 23.1542 514.927C26.4002 518.174 30.2537 520.749 34.4948 522.505C38.7359 524.262 43.2814 525.167 47.8719 525.167H220.042C224.633 525.167 229.178 524.262 233.419 522.505C237.661 520.749 241.514 518.174 244.76 514.927C248.006 511.681 250.581 507.827 252.338 503.586C254.094 499.345 254.998 494.799 254.998 490.208V47.1376C254.998 37.866 251.316 28.9741 244.76 22.4181C238.204 15.8621 229.313 12.179 220.042 12.179Z" fill="white"/>
</svg>
